<?xml version="1.0" encoding="utf-8"?>
<!-- Generator: Adobe Illustrator 24.0.0, SVG Export Plug-In . SVG Version: 6.00 Build 0)  -->
<svg version="1.1" id="Layer_1" xmlns="http://www.w3.org/2000/svg" xmlns:xlink="http://www.w3.org/1999/xlink" x="0px" y="0px"
	 viewBox="0 0 500 380" style="enable-background:new 0 0 500 380;" xml:space="preserve">
<style type="text/css">
	.st0{fill:#F2F2F2;}
	.st1{fill:#39617A;}
	.st2{fill:#5DAFE1;}
</style>
<g>
	<polygon class="st0" points="105.5,3.2 395,3.2 495.3,106.9 248.2,377 5.2,106.9 	"/>
	<polygon class="st1" points="476.9,106.9 460.8,124.7 440.1,147.4 435.5,152.5 419.4,170.2 414.8,175.3 398.7,193 394.1,198 
		210.4,198 177.4,163.9 324.2,163.9 334,163.9 344.4,152.5 63.7,152.5 59.1,147.4 38.4,124.7 22.1,106.7 113,15.8 386.3,15.8 
		464.8,95.8 123.5,96.4 113,106.9 	"/>
	<polygon class="st2" points="383.7,209.4 378,215.7 373.4,220.8 357.3,238.5 352.7,243.6 336.6,261.3 332,266.4 315.9,284.1 
		311.3,289.1 311.7,289.1 291,311.9 270.3,334.7 249.6,357.5 228.9,334.7 208.2,311.9 187.5,289.1 188,289.1 183.4,284.1 
		167.3,266.4 162.7,261.3 146.6,243.6 142,238.5 125.9,220.8 121.3,215.7 105.2,198 100.6,193 84.5,175.3 79.9,170.2 74.1,163.9 
		165.2,163.9 170.9,170.2 175.6,175.3 191.6,193 196.3,198 205.2,207.9 281.1,207.9 273.5,216.2 271.4,218.5 263.9,226.8 
		261.7,229.1 256.9,234.4 254.2,237.4 252.1,239.8 244.6,248 243.1,249.6 249.6,256.7 261.6,243.6 266.2,238.5 282.3,220.8 
		286.9,215.7 292.6,209.4 	"/>
</g>
</svg>
