<?xml version="1.0" encoding="utf-8"?>
<!-- Generator: Adobe Illustrator 24.0.0, SVG Export Plug-In . SVG Version: 6.00 Build 0)  -->
<svg version="1.1" id="Layer_1" xmlns="http://www.w3.org/2000/svg" xmlns:xlink="http://www.w3.org/1999/xlink" x="0px" y="0px"
	 viewBox="0 0 475 85" style="enable-background:new 0 0 475 85;" xml:space="preserve">
<style type="text/css">
	.st0{fill:#FFFFFF;}
</style>
<path class="st0" d="M89.7,0.4H24.5L1.9,23.8l54.8,60.9l55.7-60.9L89.7,0.4z M85.9,48.3l-1,1.1l-3.6,4l-1,1.1l-3.6,4l-1,1.1l-3.6,4
	l-1,1.1H71l-4.7,5.1l-4.7,5.1L57,80.2l-4.7-5.1l-4.7-5.1L43,64.8h0.1l-1-1.1l-3.6-4l-1-1.1l-3.6-4l-1-1.1l-3.6-4l-1-1.1l-3.6-4
	l-1-1.1l-3.6-4l-1-1.1l-1.3-1.4h20.5l1.3,1.4l1,1.1l3.6,4l1,1.1l2,2.2H64l-1.7,1.9l-0.5,0.5l-1.7,1.9l-0.5,0.5l-1.1,1.2L58,53.2
	l-0.5,0.5l-1.7,1.9l-0.3,0.4l1.5,1.6l2.7-3l1-1.1l3.6-4l1-1.1l1.3-1.4h20.5L85.9,48.3z M99.9,32.9l-1,1.1l-3.6,4l-1,1.1l-3.6,4
	l-1,1.1H48.1l-7.4-7.7h33.1H76l2.3-2.6H15.1l-1-1.1l-4.7-5.1l-3.7-4L26.2,3.2h61.6l17.7,18l-76.9,0.2l-2.4,2.4h82l-3.6,4L99.9,32.9z
	"/>
<g>
	<path class="st0" d="M133.7,60.6V46.8l-4.3,3.2v-3.5l4.3-3.1V26.2h4.4v14.1l6.8-5v3.5l-6.8,4.9v13.1h14.7v3.7H133.7z"/>
	<path class="st0" d="M177.6,53.9c0,2.6,0.1,4.8,0.2,6.7h-4l-0.3-4h-0.1c-1.2,2-3.8,4.6-8.2,4.6c-3.9,0-8.5-2.1-8.5-10.8V35.9h4.5
		v13.7c0,4.7,1.4,7.9,5.5,7.9c3,0,5.1-2.1,5.9-4.1c0.3-0.7,0.4-1.5,0.4-2.3V35.9h4.5V53.9z"/>
	<path class="st0" d="M189.5,47.3h0.1c0.6-0.9,1.5-1.9,2.2-2.8l7.3-8.5h5.4l-9.6,10.2l10.9,14.6h-5.5l-8.5-11.8l-2.3,2.6v9.3h-4.4
		V24.4h4.4V47.3z"/>
	<path class="st0" d="M223.6,60.6l-0.4-3.1h-0.2c-1.4,1.9-4,3.7-7.6,3.7c-5,0-7.6-3.5-7.6-7.1c0-6,5.3-9.2,14.9-9.2v-0.5
		c0-2-0.6-5.7-5.6-5.7c-2.3,0-4.7,0.7-6.4,1.8l-1-3c2-1.3,5-2.2,8.1-2.2c7.6,0,9.4,5.2,9.4,10.1v9.2c0,2.1,0.1,4.2,0.4,5.9H223.6z
		 M222.9,48c-4.9-0.1-10.5,0.8-10.5,5.6c0,2.9,1.9,4.3,4.2,4.3c3.2,0,5.3-2,6-4.1c0.2-0.5,0.3-1,0.3-1.4V48z"/>
	<path class="st0" d="M233.9,56c1.3,0.9,3.7,1.8,5.9,1.8c3.3,0,4.8-1.6,4.8-3.7c0-2.1-1.3-3.3-4.6-4.5c-4.4-1.6-6.5-4-6.5-7
		c0-4,3.2-7.3,8.5-7.3c2.5,0,4.7,0.7,6.1,1.5l-1.1,3.3c-1-0.6-2.8-1.4-5.1-1.4c-2.7,0-4.1,1.5-4.1,3.4c0,2,1.5,3,4.7,4.2
		c4.3,1.6,6.5,3.8,6.5,7.5c0,4.3-3.4,7.4-9.2,7.4c-2.7,0-5.2-0.7-6.9-1.7L233.9,56z"/>
	<path class="st0" d="M251.9,58l11.2-14.6c1.1-1.3,2.1-2.5,3.2-3.8v-0.1H253v-3.6h18.8l-0.1,2.8l-11,14.4c-1,1.4-2,2.6-3.2,3.9v0.1
		H272v3.6h-20.1V58z"/>
	<path class="st0" d="M287,55.2c2,1.2,4.9,2.2,8,2.2c4.5,0,7.2-2.4,7.2-5.9c0-3.2-1.8-5.1-6.5-6.8c-5.6-2-9.1-4.9-9.1-9.8
		c0-5.4,4.4-9.3,11.1-9.3c3.5,0,6.1,0.8,7.6,1.7l-1.2,3.6c-1.1-0.6-3.4-1.6-6.5-1.6c-4.7,0-6.5,2.8-6.5,5.2c0,3.2,2.1,4.8,6.8,6.6
		c5.8,2.2,8.8,5.1,8.8,10.1c0,5.3-3.9,9.9-12.1,9.9c-3.3,0-6.9-1-8.8-2.2L287,55.2z"/>
	<path class="st0" d="M317.9,28.8v7.1h6.4v3.4h-6.4v13.3c0,3.1,0.9,4.8,3.4,4.8c1.2,0,2-0.2,2.6-0.3l0.2,3.4c-0.9,0.4-2.2,0.6-4,0.6
		c-2.1,0-3.8-0.7-4.9-1.9c-1.3-1.3-1.7-3.5-1.7-6.4V39.3h-3.8v-3.4h3.8V30L317.9,28.8z"/>
	<path class="st0" d="M331.6,49.1c0.1,6.1,4,8.6,8.5,8.6c3.2,0,5.2-0.6,6.8-1.3l0.8,3.2c-1.6,0.7-4.3,1.5-8.2,1.5
		c-7.6,0-12.2-5-12.2-12.5s4.4-13.3,11.6-13.3c8.1,0,10.2,7.1,10.2,11.6c0,0.9-0.1,1.6-0.2,2.1H331.6z M344.7,45.9
		c0.1-2.9-1.2-7.3-6.2-7.3c-4.5,0-6.5,4.2-6.9,7.3H344.7z"/>
	<path class="st0" d="M355.1,60.6V39.3h-3.5v-3.4h3.5v-1.2c0-3.5,0.8-6.6,2.9-8.6c1.7-1.6,3.9-2.3,6-2.3c1.6,0,3,0.4,3.8,0.7
		l-0.6,3.5c-0.7-0.3-1.6-0.6-2.9-0.6c-3.8,0-4.8,3.4-4.8,7.1v1.3h6v3.4h-6v21.3H355.1z"/>
	<path class="st0" d="M383.2,60.6l-0.4-3.1h-0.2c-1.4,1.9-4,3.7-7.6,3.7c-5,0-7.6-3.5-7.6-7.1c0-6,5.3-9.2,14.9-9.2v-0.5
		c0-2-0.6-5.7-5.6-5.7c-2.3,0-4.7,0.7-6.4,1.8l-1-3c2-1.3,5-2.2,8.1-2.2c7.6,0,9.4,5.2,9.4,10.1v9.2c0,2.1,0.1,4.2,0.4,5.9H383.2z
		 M382.6,48c-4.9-0.1-10.5,0.8-10.5,5.6c0,2.9,1.9,4.3,4.2,4.3c3.2,0,5.3-2,6-4.1c0.2-0.5,0.3-1,0.3-1.4V48z"/>
	<path class="st0" d="M394.2,42.6c0-2.6-0.1-4.6-0.2-6.7h4l0.3,4.1h0.1c1.2-2.3,4.1-4.6,8.2-4.6c3.4,0,8.7,2,8.7,10.5v14.8h-4.5
		V46.4c0-4-1.5-7.3-5.7-7.3c-3,0-5.3,2.1-6,4.6c-0.2,0.6-0.3,1.3-0.3,2.1v14.9h-4.5V42.6z M411.6,25.2l-6.2,7.3h-3.2l4.5-7.3H411.6z
		"/>
	<path class="st0" d="M421.9,56c1.3,0.9,3.7,1.8,5.9,1.8c3.3,0,4.8-1.6,4.8-3.7c0-2.1-1.3-3.3-4.6-4.5c-4.4-1.6-6.5-4-6.5-7
		c0-4,3.2-7.3,8.5-7.3c2.5,0,4.7,0.7,6.1,1.5l-1.1,3.3c-1-0.6-2.8-1.4-5.1-1.4c-2.7,0-4.1,1.5-4.1,3.4c0,2,1.5,3,4.7,4.2
		c4.3,1.6,6.5,3.8,6.5,7.5c0,4.3-3.4,7.4-9.2,7.4c-2.7,0-5.2-0.7-6.9-1.7L421.9,56z"/>
	<path class="st0" d="M447.2,47.3h0.1c0.6-0.9,1.5-1.9,2.2-2.8l7.3-8.5h5.4l-9.6,10.2l10.9,14.6H458l-8.5-11.8l-2.3,2.6v9.3h-4.4
		V24.4h4.4V47.3z"/>
	<path class="st0" d="M472.5,29c0.1,1.5-1.1,2.8-2.9,2.8c-1.6,0-2.7-1.2-2.7-2.8c0-1.6,1.2-2.8,2.8-2.8
		C471.5,26.2,472.5,27.4,472.5,29z M467.5,60.6V35.9h4.5v24.7H467.5z"/>
</g>
</svg>
