<?xml version="1.0" encoding="utf-8"?>
<!-- Generator: Adobe Illustrator 24.0.0, SVG Export Plug-In . SVG Version: 6.00 Build 0)  -->
<svg version="1.1" xmlns="http://www.w3.org/2000/svg" xmlns:xlink="http://www.w3.org/1999/xlink" x="0px" y="0px"
	 viewBox="0 0 500 100" style="enable-background:new 0 0 500 100;" xml:space="preserve">
<style type="text/css">
	.st0{fill:#231F20;}
	.st1{fill:#F2F2F2;}
	.st2{fill:#39617A;}
	.st3{fill:#5DAFE1;}
	.st4{fill:url(#SVGID_1_);}
	.st5{fill:url(#SVGID_2_);}
	.st6{fill:url(#SVGID_3_);}
	.st7{fill:url(#SVGID_4_);}
	.st8{fill:url(#SVGID_5_);}
	.st9{fill:url(#SVGID_6_);}
	.st10{fill:url(#SVGID_7_);}
	.st11{fill:url(#SVGID_8_);}
	.st12{fill:url(#SVGID_9_);}
	.st13{fill:url(#SVGID_10_);}
	.st14{fill:url(#SVGID_11_);}
	.st15{fill:url(#SVGID_12_);}
	.st16{fill:url(#SVGID_13_);}
	.st17{fill:url(#SVGID_14_);}
	.st18{fill:url(#SVGID_15_);}
	.st19{fill:url(#SVGID_16_);}
	.st20{fill:url(#SVGID_17_);}
	.st21{fill:#FFFFFF;}
</style>
<g id="Layer_2">
	<rect x="1560" y="-840" class="st0" width="500" height="500"/>
</g>
<g id="Layer_1">
	<rect y="-760" class="st0" width="500" height="500"/>
	<rect y="-1280" class="st0" width="500" height="500"/>
	<g>
		<path d="M299.6-879.2v1.7C299.6-878,299.6-878.6,299.6-879.2L299.6-879.2z M416.2-879.2c0,0.6,0,1.2,0,1.7L416.2-879.2
			L416.2-879.2z"/>
	</g>
	<g>
		<path d="M416.2-874.4L416.2-874.4l0-1.7C416.2-875.5,416.2-874.9,416.2-874.4z M299.6-876.1v1.7h0
			C299.6-874.9,299.6-875.5,299.6-876.1z"/>
	</g>
	<g>
		<polygon class="st1" points="132.1,-1178 360.9,-1178 440.1,-1096 244.9,-882.6 52.8,-1096 		"/>
		<polygon class="st2" points="425.6,-1096 412.9,-1082 396.5,-1064 392.9,-1060 380.2,-1046 376.5,-1042 363.8,-1028 360.2,-1024 
			215,-1024 188.9,-1051 304.9,-1051 312.7,-1051 320.9,-1060 99.1,-1060 95.5,-1064 79.1,-1082 66.2,-1096.2 138,-1168 354,-1168 
			416.1,-1104.8 146.3,-1104.3 138,-1096 		"/>
		<polygon class="st3" points="270.8,-1016.2 264.9,-1009.7 263.2,-1007.8 257.3,-1001.3 255.6,-999.4 251.8,-995.2 249.6,-992.9 
			247.9,-991 242,-984.5 240.3,-982.6 235.9,-977.8 231.5,-982.6 229.8,-984.5 223.9,-991 222.2,-992.9 216.2,-999.4 214.5,-1001.3 
			208.6,-1007.8 206.9,-1009.7 204.8,-1012 201,-1016.2 		"/>
		<polygon class="st3" points="352,-1015 347.5,-1010 343.8,-1006 331.1,-992 327.5,-988 314.7,-974 311.1,-970 298.4,-956 
			294.7,-952 295.1,-952 278.7,-934 262.4,-916 246,-898 229.6,-916 213.3,-934 196.9,-952 197.3,-952 193.6,-956 180.9,-970 
			177.3,-974 164.5,-988 160.9,-992 148.2,-1006 144.5,-1010 131.8,-1024 128.2,-1028 115.5,-1042 111.8,-1046 107.3,-1051 
			179.3,-1051 183.8,-1046 187.5,-1042 200.2,-1028 203.8,-1024 216.5,-1010 220.2,-1006 232.9,-992 236.5,-988 246,-977.6 
			255.5,-988 259.1,-992 271.8,-1006 275.5,-1010 280,-1015 		"/>
	</g>
	<g>
		<path d="M299.6-379.2v1.7C299.6-378,299.6-378.6,299.6-379.2L299.6-379.2z M416.2-379.2c0,0.6,0,1.2,0,1.7L416.2-379.2
			L416.2-379.2z"/>
	</g>
	<g>
		<path d="M416.2-374.4L416.2-374.4l0-1.7C416.2-375.5,416.2-374.9,416.2-374.4z M299.6-376.1v1.7h0
			C299.6-374.9,299.6-375.5,299.6-376.1z"/>
	</g>
	<linearGradient id="SVGID_1_" gradientUnits="userSpaceOnUse" x1="371.8392" y1="-588.1162" x2="95.5607" y2="-465.0467">
		<stop  offset="5.618000e-03" style="stop-color:#EBC17D"/>
		<stop  offset="0.1854" style="stop-color:#EDD089"/>
		<stop  offset="0.7303" style="stop-color:#C08329"/>
		<stop  offset="0.9494" style="stop-color:#EABE81"/>
	</linearGradient>
	<path class="st4" d="M364.4-655.7H135.6l-79.3,82l192.1,213.4l195.3-213.4L364.4-655.7z M351-487.7l-3.6,4l-12.7,14l-3.6,4
		l-12.7,14l-3.6,4l-12.7,14l-3.6,4h0.4l-16.4,18l-16.4,18l-16.4,18l-16.4-18l-16.4-18l-16.4-18h0.4l-3.6-4l-12.7-14l-3.6-4l-12.7-14
		l-3.6-4l-12.7-14l-3.6-4l-12.7-14l-3.6-4l-12.7-14l-3.6-4l-4.6-5h72l4.6,5l3.6,4l12.7,14l3.6,4l7.1,7.8h59.9l-5.9,6.5l-1.7,1.9
		l-5.9,6.5l-1.7,1.9l-3.8,4.2l-2.1,2.3l-1.7,1.9l-5.9,6.5l-1.2,1.3l5.1,5.6l9.4-10.4l3.6-4l12.7-14l3.6-4l4.6-5h72L351-487.7z
		 M400.1-541.7l-3.6,4l-12.7,14l-3.6,4l-12.7,14l-3.6,4H218.5l-26-27h116h7.8l8.2-9H102.6l-3.6-4l-16.4-18l-12.9-14.2l71.8-71.8h216
		l62.1,63.2L149.8-582l-8.3,8.3h287.6l-12.7,14L400.1-541.7z"/>
	<rect y="-240" width="500" height="99.5"/>
	<rect x="0.5" y="0.3" width="500" height="99.5"/>
	<linearGradient id="SVGID_2_" gradientUnits="userSpaceOnUse" x1="100.4518" y1="-210.8424" x2="21.6803" y2="-175.7533">
		<stop  offset="5.618000e-03" style="stop-color:#EBC17D"/>
		<stop  offset="0.1854" style="stop-color:#EDD089"/>
		<stop  offset="0.7303" style="stop-color:#C08329"/>
		<stop  offset="0.9494" style="stop-color:#EABE81"/>
	</linearGradient>
	<path class="st5" d="M98.3-230.1H33.1l-22.6,23.4l54.8,60.9l55.7-60.9L98.3-230.1z M94.5-182.2l-1,1.1l-3.6,4l-1,1.1l-3.6,4l-1,1.1
		l-3.6,4l-1,1.1h0.1l-4.7,5.1l-4.7,5.1l-4.7,5.1l-4.7-5.1l-4.7-5.1l-4.7-5.1h0.1l-1-1.1l-3.6-4l-1-1.1l-3.6-4l-1-1.1l-3.6-4l-1-1.1
		l-3.6-4l-1-1.1l-3.6-4l-1-1.1l-1.3-1.4h20.5l1.3,1.4l1,1.1l3.6,4l1,1.1l2,2.2h17.1l-1.7,1.9l-0.5,0.5l-1.7,1.9l-0.5,0.5l-1.1,1.2
		l-0.6,0.7l-0.5,0.5l-1.7,1.9l-0.3,0.4l1.5,1.6l2.7-3l1-1.1l3.6-4l1-1.1l1.3-1.4h20.5L94.5-182.2z M108.5-197.6l-1,1.1l-3.6,4
		l-1,1.1l-3.6,4l-1,1.1H56.7l-7.4-7.7h33.1h2.2l2.3-2.6H23.7l-1-1.1l-4.7-5.1l-3.7-4l20.5-20.5h61.6l17.7,18l-76.9,0.2l-2.4,2.4h82
		l-3.6,4L108.5-197.6z"/>
	<g>
		<linearGradient id="SVGID_3_" gradientUnits="userSpaceOnUse" x1="138.542" y1="-173.686" x2="157.9756" y2="-193.1196">
			<stop  offset="5.618000e-03" style="stop-color:#FBC926"/>
			<stop  offset="0.2528" style="stop-color:#FFFBCC"/>
			<stop  offset="0.3045" style="stop-color:#F8F0BB"/>
			<stop  offset="0.4072" style="stop-color:#E7D28E"/>
			<stop  offset="0.55" style="stop-color:#CCA246"/>
			<stop  offset="0.5955" style="stop-color:#C3922E"/>
			<stop  offset="0.8708" style="stop-color:#EED688"/>
			<stop  offset="1" style="stop-color:#FFFBCC"/>
		</linearGradient>
		<path class="st6" d="M142.4-169.9v-13.8l-4.3,3.2v-3.5l4.3-3.1v-17.2h4.4v14.1l6.8-5v3.5l-6.8,4.9v13.1h14.7v3.7H142.4z"/>
		<linearGradient id="SVGID_4_" gradientUnits="userSpaceOnUse" x1="166.6733" y1="-172.9904" x2="187.2486" y2="-193.5657">
			<stop  offset="5.618000e-03" style="stop-color:#FBC926"/>
			<stop  offset="0.2528" style="stop-color:#FFFBCC"/>
			<stop  offset="0.3045" style="stop-color:#F8F0BB"/>
			<stop  offset="0.4072" style="stop-color:#E7D28E"/>
			<stop  offset="0.55" style="stop-color:#CCA246"/>
			<stop  offset="0.5955" style="stop-color:#C3922E"/>
			<stop  offset="0.8708" style="stop-color:#EED688"/>
			<stop  offset="1" style="stop-color:#FFFBCC"/>
		</linearGradient>
		<path class="st7" d="M186.2-176.6c0,2.6,0.1,4.8,0.2,6.7h-4l-0.3-4h-0.1c-1.2,2-3.8,4.6-8.2,4.6c-3.9,0-8.5-2.1-8.5-10.8v-14.5
			h4.5v13.7c0,4.7,1.4,7.9,5.5,7.9c3,0,5.1-2.1,5.9-4.1c0.3-0.7,0.4-1.5,0.4-2.3v-15.2h4.5V-176.6z"/>
		<linearGradient id="SVGID_5_" gradientUnits="userSpaceOnUse" x1="189.7962" y1="-173.7501" x2="211.8597" y2="-195.8136">
			<stop  offset="5.618000e-03" style="stop-color:#FBC926"/>
			<stop  offset="0.2528" style="stop-color:#FFFBCC"/>
			<stop  offset="0.3045" style="stop-color:#F8F0BB"/>
			<stop  offset="0.4072" style="stop-color:#E7D28E"/>
			<stop  offset="0.55" style="stop-color:#CCA246"/>
			<stop  offset="0.5955" style="stop-color:#C3922E"/>
			<stop  offset="0.8708" style="stop-color:#EED688"/>
			<stop  offset="1" style="stop-color:#FFFBCC"/>
		</linearGradient>
		<path class="st8" d="M198.1-183.2h0.1c0.6-0.9,1.5-1.9,2.2-2.8l7.3-8.5h5.4l-9.6,10.2l10.9,14.6h-5.5l-8.5-11.8l-2.3,2.6v9.3h-4.4
			v-36.3h4.4V-183.2z"/>
		<linearGradient id="SVGID_6_" gradientUnits="userSpaceOnUse" x1="217.9822" y1="-172.0382" x2="236.0287" y2="-190.0848">
			<stop  offset="5.618000e-03" style="stop-color:#FBC926"/>
			<stop  offset="0.2528" style="stop-color:#FFFBCC"/>
			<stop  offset="0.3045" style="stop-color:#F8F0BB"/>
			<stop  offset="0.4072" style="stop-color:#E7D28E"/>
			<stop  offset="0.55" style="stop-color:#CCA246"/>
			<stop  offset="0.5955" style="stop-color:#C3922E"/>
			<stop  offset="0.8708" style="stop-color:#EED688"/>
			<stop  offset="1" style="stop-color:#FFFBCC"/>
		</linearGradient>
		<path class="st9" d="M232.2-169.9l-0.4-3.1h-0.2c-1.4,1.9-4,3.7-7.6,3.7c-5,0-7.6-3.5-7.6-7.1c0-6,5.3-9.2,14.9-9.2v-0.5
			c0-2-0.6-5.7-5.6-5.7c-2.3,0-4.7,0.7-6.4,1.8l-1-3c2-1.3,5-2.2,8.1-2.2c7.6,0,9.4,5.2,9.4,10.1v9.2c0,2.1,0.1,4.2,0.4,5.9H232.2z
			 M231.6-182.5c-4.9-0.1-10.5,0.8-10.5,5.6c0,2.9,1.9,4.3,4.2,4.3c3.2,0,5.3-2,6-4.1c0.2-0.5,0.3-1,0.3-1.4V-182.5z"/>
		<linearGradient id="SVGID_7_" gradientUnits="userSpaceOnUse" x1="240.027" y1="-172.4382" x2="258.9744" y2="-191.3856">
			<stop  offset="5.618000e-03" style="stop-color:#FBC926"/>
			<stop  offset="0.2528" style="stop-color:#FFFBCC"/>
			<stop  offset="0.3045" style="stop-color:#F8F0BB"/>
			<stop  offset="0.4072" style="stop-color:#E7D28E"/>
			<stop  offset="0.55" style="stop-color:#CCA246"/>
			<stop  offset="0.5955" style="stop-color:#C3922E"/>
			<stop  offset="0.8708" style="stop-color:#EED688"/>
			<stop  offset="1" style="stop-color:#FFFBCC"/>
		</linearGradient>
		<path class="st10" d="M242.5-174.5c1.3,0.9,3.7,1.8,5.9,1.8c3.3,0,4.8-1.6,4.8-3.7c0-2.1-1.3-3.3-4.6-4.5c-4.4-1.6-6.5-4-6.5-7
			c0-4,3.2-7.3,8.5-7.3c2.5,0,4.7,0.7,6.1,1.5l-1.1,3.3c-1-0.6-2.8-1.4-5.1-1.4c-2.7,0-4.1,1.5-4.1,3.4c0,2,1.5,3,4.7,4.2
			c4.3,1.6,6.5,3.8,6.5,7.5c0,4.3-3.4,7.4-9.2,7.4c-2.7,0-5.2-0.7-6.9-1.7L242.5-174.5z"/>
		<linearGradient id="SVGID_8_" gradientUnits="userSpaceOnUse" x1="259.6625" y1="-170.7747" x2="281.9557" y2="-193.068">
			<stop  offset="5.618000e-03" style="stop-color:#FBC926"/>
			<stop  offset="0.2528" style="stop-color:#FFFBCC"/>
			<stop  offset="0.3045" style="stop-color:#F8F0BB"/>
			<stop  offset="0.4072" style="stop-color:#E7D28E"/>
			<stop  offset="0.55" style="stop-color:#CCA246"/>
			<stop  offset="0.5955" style="stop-color:#C3922E"/>
			<stop  offset="0.8708" style="stop-color:#EED688"/>
			<stop  offset="1" style="stop-color:#FFFBCC"/>
		</linearGradient>
		<path class="st11" d="M260.6-172.5l11.2-14.6c1.1-1.3,2.1-2.5,3.2-3.8v-0.1h-13.4v-3.6h18.8l-0.1,2.8l-11,14.4
			c-1,1.4-2,2.6-3.2,3.9v0.1h14.5v3.6h-20.1V-172.5z"/>
		<linearGradient id="SVGID_9_" gradientUnits="userSpaceOnUse" x1="292.0249" y1="-174.0039" x2="317.5606" y2="-199.5396">
			<stop  offset="5.618000e-03" style="stop-color:#FBC926"/>
			<stop  offset="0.2528" style="stop-color:#FFFBCC"/>
			<stop  offset="0.3045" style="stop-color:#F8F0BB"/>
			<stop  offset="0.4072" style="stop-color:#E7D28E"/>
			<stop  offset="0.55" style="stop-color:#CCA246"/>
			<stop  offset="0.5955" style="stop-color:#C3922E"/>
			<stop  offset="0.8708" style="stop-color:#EED688"/>
			<stop  offset="1" style="stop-color:#FFFBCC"/>
		</linearGradient>
		<path class="st12" d="M295.6-175.3c2,1.2,4.9,2.2,8,2.2c4.5,0,7.2-2.4,7.2-5.9c0-3.2-1.8-5.1-6.5-6.8c-5.6-2-9.1-4.9-9.1-9.8
			c0-5.4,4.4-9.3,11.1-9.3c3.5,0,6.1,0.8,7.6,1.7l-1.2,3.6c-1.1-0.6-3.4-1.6-6.5-1.6c-4.7,0-6.5,2.8-6.5,5.2c0,3.2,2.1,4.8,6.8,6.6
			c5.8,2.2,8.8,5.1,8.8,10.1c0,5.3-3.9,9.9-12.1,9.9c-3.3,0-6.9-1-8.8-2.2L295.6-175.3z"/>
		<linearGradient id="SVGID_10_" gradientUnits="userSpaceOnUse" x1="318.6068" y1="-176.4624" x2="335.1616" y2="-193.0172">
			<stop  offset="5.618000e-03" style="stop-color:#FBC926"/>
			<stop  offset="0.2528" style="stop-color:#FFFBCC"/>
			<stop  offset="0.3045" style="stop-color:#F8F0BB"/>
			<stop  offset="0.4072" style="stop-color:#E7D28E"/>
			<stop  offset="0.55" style="stop-color:#CCA246"/>
			<stop  offset="0.5955" style="stop-color:#C3922E"/>
			<stop  offset="0.8708" style="stop-color:#EED688"/>
			<stop  offset="1" style="stop-color:#FFFBCC"/>
		</linearGradient>
		<path class="st13" d="M326.5-201.7v7.1h6.4v3.4h-6.4v13.3c0,3.1,0.9,4.8,3.4,4.8c1.2,0,2-0.2,2.6-0.3l0.2,3.4
			c-0.9,0.4-2.2,0.6-4,0.6c-2.1,0-3.8-0.7-4.9-1.9c-1.3-1.3-1.7-3.5-1.7-6.4v-13.5h-3.8v-3.4h3.8v-5.9L326.5-201.7z"/>
		<linearGradient id="SVGID_11_" gradientUnits="userSpaceOnUse" x1="339.2028" y1="-172.6971" x2="356.7155" y2="-190.2098">
			<stop  offset="5.618000e-03" style="stop-color:#FBC926"/>
			<stop  offset="0.2528" style="stop-color:#FFFBCC"/>
			<stop  offset="0.3045" style="stop-color:#F8F0BB"/>
			<stop  offset="0.4072" style="stop-color:#E7D28E"/>
			<stop  offset="0.55" style="stop-color:#CCA246"/>
			<stop  offset="0.5955" style="stop-color:#C3922E"/>
			<stop  offset="0.8708" style="stop-color:#EED688"/>
			<stop  offset="1" style="stop-color:#FFFBCC"/>
		</linearGradient>
		<path class="st14" d="M340.2-181.4c0.1,6.1,4,8.6,8.5,8.6c3.2,0,5.2-0.6,6.8-1.3l0.8,3.2c-1.6,0.7-4.3,1.5-8.2,1.5
			c-7.6,0-12.2-5-12.2-12.5c0-7.5,4.4-13.3,11.6-13.3c8.1,0,10.2,7.1,10.2,11.6c0,0.9-0.1,1.6-0.2,2.1H340.2z M353.4-184.6
			c0.1-2.9-1.2-7.3-6.2-7.3c-4.5,0-6.5,4.2-6.9,7.3H353.4z"/>
		<linearGradient id="SVGID_12_" gradientUnits="userSpaceOnUse" x1="356.909" y1="-176.6743" x2="381.3216" y2="-201.0868">
			<stop  offset="5.618000e-03" style="stop-color:#FBC926"/>
			<stop  offset="0.2528" style="stop-color:#FFFBCC"/>
			<stop  offset="0.3045" style="stop-color:#F8F0BB"/>
			<stop  offset="0.4072" style="stop-color:#E7D28E"/>
			<stop  offset="0.55" style="stop-color:#CCA246"/>
			<stop  offset="0.5955" style="stop-color:#C3922E"/>
			<stop  offset="0.8708" style="stop-color:#EED688"/>
			<stop  offset="1" style="stop-color:#FFFBCC"/>
		</linearGradient>
		<path class="st15" d="M363.7-169.9v-21.3h-3.5v-3.4h3.5v-1.2c0-3.5,0.8-6.6,2.9-8.6c1.7-1.6,3.9-2.3,6-2.3c1.6,0,3,0.4,3.8,0.7
			l-0.6,3.5c-0.7-0.3-1.6-0.6-2.9-0.6c-3.8,0-4.8,3.4-4.8,7.1v1.3h6v3.4h-6v21.3H363.7z"/>
		<linearGradient id="SVGID_13_" gradientUnits="userSpaceOnUse" x1="377.6031" y1="-172.0382" x2="395.6496" y2="-190.0848">
			<stop  offset="5.618000e-03" style="stop-color:#FBC926"/>
			<stop  offset="0.2528" style="stop-color:#FFFBCC"/>
			<stop  offset="0.3045" style="stop-color:#F8F0BB"/>
			<stop  offset="0.4072" style="stop-color:#E7D28E"/>
			<stop  offset="0.55" style="stop-color:#CCA246"/>
			<stop  offset="0.5955" style="stop-color:#C3922E"/>
			<stop  offset="0.8708" style="stop-color:#EED688"/>
			<stop  offset="1" style="stop-color:#FFFBCC"/>
		</linearGradient>
		<path class="st16" d="M391.9-169.9l-0.4-3.1h-0.2c-1.4,1.9-4,3.7-7.6,3.7c-5,0-7.6-3.5-7.6-7.1c0-6,5.3-9.2,14.9-9.2v-0.5
			c0-2-0.6-5.7-5.6-5.7c-2.3,0-4.7,0.7-6.4,1.8l-1-3c2-1.3,5-2.2,8.1-2.2c7.6,0,9.4,5.2,9.4,10.1v9.2c0,2.1,0.1,4.2,0.4,5.9H391.9z
			 M391.2-182.5c-4.9-0.1-10.5,0.8-10.5,5.6c0,2.9,1.9,4.3,4.2,4.3c3.2,0,5.3-2,6-4.1c0.2-0.5,0.3-1,0.3-1.4V-182.5z"/>
		<linearGradient id="SVGID_14_" gradientUnits="userSpaceOnUse" x1="401.8079" y1="-170.8386" x2="428.2376" y2="-197.2683">
			<stop  offset="5.618000e-03" style="stop-color:#FBC926"/>
			<stop  offset="0.2528" style="stop-color:#FFFBCC"/>
			<stop  offset="0.3045" style="stop-color:#F8F0BB"/>
			<stop  offset="0.4072" style="stop-color:#E7D28E"/>
			<stop  offset="0.55" style="stop-color:#CCA246"/>
			<stop  offset="0.5955" style="stop-color:#C3922E"/>
			<stop  offset="0.8708" style="stop-color:#EED688"/>
			<stop  offset="1" style="stop-color:#FFFBCC"/>
		</linearGradient>
		<path class="st17" d="M402.8-187.9c0-2.6-0.1-4.6-0.2-6.7h4l0.3,4.1h0.1c1.2-2.3,4.1-4.6,8.2-4.6c3.4,0,8.7,2,8.7,10.5v14.8h-4.5
			v-14.2c0-4-1.5-7.3-5.7-7.3c-3,0-5.3,2.1-6,4.6c-0.2,0.6-0.3,1.3-0.3,2.1v14.9h-4.5V-187.9z M420.2-205.3L414-198h-3.2l4.5-7.3
			H420.2z"/>
		<linearGradient id="SVGID_15_" gradientUnits="userSpaceOnUse" x1="427.9874" y1="-172.4382" x2="446.9348" y2="-191.3856">
			<stop  offset="5.618000e-03" style="stop-color:#FBC926"/>
			<stop  offset="0.2528" style="stop-color:#FFFBCC"/>
			<stop  offset="0.3045" style="stop-color:#F8F0BB"/>
			<stop  offset="0.4072" style="stop-color:#E7D28E"/>
			<stop  offset="0.55" style="stop-color:#CCA246"/>
			<stop  offset="0.5955" style="stop-color:#C3922E"/>
			<stop  offset="0.8708" style="stop-color:#EED688"/>
			<stop  offset="1" style="stop-color:#FFFBCC"/>
		</linearGradient>
		<path class="st18" d="M430.5-174.5c1.3,0.9,3.7,1.8,5.9,1.8c3.3,0,4.8-1.6,4.8-3.7c0-2.1-1.3-3.3-4.6-4.5c-4.4-1.6-6.5-4-6.5-7
			c0-4,3.2-7.3,8.5-7.3c2.5,0,4.7,0.7,6.1,1.5l-1.1,3.3c-1-0.6-2.8-1.4-5.1-1.4c-2.7,0-4.1,1.5-4.1,3.4c0,2,1.5,3,4.7,4.2
			c4.3,1.6,6.5,3.8,6.5,7.5c0,4.3-3.4,7.4-9.2,7.4c-2.7,0-5.2-0.7-6.9-1.7L430.5-174.5z"/>
		<linearGradient id="SVGID_16_" gradientUnits="userSpaceOnUse" x1="447.4567" y1="-173.7501" x2="469.5201" y2="-195.8136">
			<stop  offset="5.618000e-03" style="stop-color:#FBC926"/>
			<stop  offset="0.2528" style="stop-color:#FFFBCC"/>
			<stop  offset="0.3045" style="stop-color:#F8F0BB"/>
			<stop  offset="0.4072" style="stop-color:#E7D28E"/>
			<stop  offset="0.55" style="stop-color:#CCA246"/>
			<stop  offset="0.5955" style="stop-color:#C3922E"/>
			<stop  offset="0.8708" style="stop-color:#EED688"/>
			<stop  offset="1" style="stop-color:#FFFBCC"/>
		</linearGradient>
		<path class="st19" d="M455.8-183.2h0.1c0.6-0.9,1.5-1.9,2.2-2.8l7.3-8.5h5.4l-9.6,10.2l10.9,14.6h-5.5l-8.5-11.8l-2.3,2.6v9.3
			h-4.4v-36.3h4.4V-183.2z"/>
		<linearGradient id="SVGID_17_" gradientUnits="userSpaceOnUse" x1="468.9206" y1="-177.1029" x2="487.8822" y2="-196.0645">
			<stop  offset="5.618000e-03" style="stop-color:#FBC926"/>
			<stop  offset="0.2528" style="stop-color:#FFFBCC"/>
			<stop  offset="0.3045" style="stop-color:#F8F0BB"/>
			<stop  offset="0.4072" style="stop-color:#E7D28E"/>
			<stop  offset="0.55" style="stop-color:#CCA246"/>
			<stop  offset="0.5955" style="stop-color:#C3922E"/>
			<stop  offset="0.8708" style="stop-color:#EED688"/>
			<stop  offset="1" style="stop-color:#FFFBCC"/>
		</linearGradient>
		<path class="st20" d="M481.2-201.5c0.1,1.5-1.1,2.8-2.9,2.8c-1.6,0-2.7-1.2-2.7-2.8c0-1.6,1.2-2.8,2.8-2.8
			C480.1-204.3,481.2-203.1,481.2-201.5z M476.2-169.9v-24.7h4.5v24.7H476.2z"/>
	</g>
	<path class="st0" d="M98.3-110.1H33.1L10.5-86.7l54.8,60.9l55.7-60.9L98.3-110.1z M94.5-62.2l-1,1.1l-3.6,4l-1,1.1l-3.6,4l-1,1.1
		l-3.6,4l-1,1.1h0.1l-4.7,5.1l-4.7,5.1l-4.7,5.1l-4.7-5.1l-4.7-5.1l-4.7-5.1h0.1l-1-1.1l-3.6-4L46-52l-3.6-4l-1-1.1l-3.6-4l-1-1.1
		l-3.6-4l-1-1.1l-3.6-4l-1-1.1L26-73.9h20.5l1.3,1.4l1,1.1l3.6,4l1,1.1l2,2.2h17.1L71-62.1l-0.5,0.5l-1.7,1.9l-0.5,0.5L67.2-58
		l-0.6,0.7l-0.5,0.5l-1.7,1.9l-0.3,0.4l1.5,1.6l2.7-3l1-1.1l3.6-4l1-1.1l1.3-1.4h20.5L94.5-62.2z M108.5-77.6l-1,1.1l-3.6,4l-1,1.1
		l-3.6,4l-1,1.1H56.7l-7.4-7.7h33.1h2.2l2.3-2.6H23.7l-1-1.1L18-82.7l-3.7-4l20.5-20.5h61.6l17.7,18l-76.9,0.2l-2.4,2.4h82l-3.6,4
		L108.5-77.6z"/>
	<g>
		<path class="st0" d="M142.4-49.9v-13.8l-4.3,3.2V-64l4.3-3.1v-17.2h4.4v14.1l6.8-5v3.5l-6.8,4.9v13.1h14.7v3.7H142.4z"/>
		<path class="st0" d="M186.2-56.6c0,2.6,0.1,4.8,0.2,6.7h-4l-0.3-4h-0.1c-1.2,2-3.8,4.6-8.2,4.6c-3.9,0-8.5-2.1-8.5-10.8v-14.5h4.5
			v13.7c0,4.7,1.4,7.9,5.5,7.9c3,0,5.1-2.1,5.9-4.1c0.3-0.7,0.4-1.5,0.4-2.3v-15.2h4.5V-56.6z"/>
		<path class="st0" d="M198.1-63.2h0.1c0.6-0.9,1.5-1.9,2.2-2.8l7.3-8.5h5.4l-9.6,10.2l10.9,14.6h-5.5l-8.5-11.8l-2.3,2.6v9.3h-4.4
			v-36.3h4.4V-63.2z"/>
		<path class="st0" d="M232.2-49.9l-0.4-3.1h-0.2c-1.4,1.9-4,3.7-7.6,3.7c-5,0-7.6-3.5-7.6-7.1c0-6,5.3-9.2,14.9-9.2v-0.5
			c0-2-0.6-5.7-5.6-5.7c-2.3,0-4.7,0.7-6.4,1.8l-1-3c2-1.3,5-2.2,8.1-2.2c7.6,0,9.4,5.2,9.4,10.1v9.2c0,2.1,0.1,4.2,0.4,5.9H232.2z
			 M231.6-62.5c-4.9-0.1-10.5,0.8-10.5,5.6c0,2.9,1.9,4.3,4.2,4.3c3.2,0,5.3-2,6-4.1c0.2-0.5,0.3-1,0.3-1.4V-62.5z"/>
		<path class="st0" d="M242.5-54.5c1.3,0.9,3.7,1.8,5.9,1.8c3.3,0,4.8-1.6,4.8-3.7c0-2.1-1.3-3.3-4.6-4.5c-4.4-1.6-6.5-4-6.5-7
			c0-4,3.2-7.3,8.5-7.3c2.5,0,4.7,0.7,6.1,1.5l-1.1,3.3c-1-0.6-2.8-1.4-5.1-1.4c-2.7,0-4.1,1.5-4.1,3.4c0,2,1.5,3,4.7,4.2
			c4.3,1.6,6.5,3.8,6.5,7.5c0,4.3-3.4,7.4-9.2,7.4c-2.7,0-5.2-0.7-6.9-1.7L242.5-54.5z"/>
		<path class="st0" d="M260.6-52.5L271.8-67c1.1-1.3,2.1-2.5,3.2-3.8V-71h-13.4v-3.6h18.8l-0.1,2.8l-11,14.4c-1,1.4-2,2.6-3.2,3.9
			v0.1h14.5v3.6h-20.1V-52.5z"/>
		<path class="st0" d="M295.6-55.3c2,1.2,4.9,2.2,8,2.2c4.5,0,7.2-2.4,7.2-5.9c0-3.2-1.8-5.1-6.5-6.8c-5.6-2-9.1-4.9-9.1-9.8
			c0-5.4,4.4-9.3,11.1-9.3c3.5,0,6.1,0.8,7.6,1.7l-1.2,3.6c-1.1-0.6-3.4-1.6-6.5-1.6c-4.7,0-6.5,2.8-6.5,5.2c0,3.2,2.1,4.8,6.8,6.6
			c5.8,2.2,8.8,5.1,8.8,10.1c0,5.3-3.9,9.9-12.1,9.9c-3.3,0-6.9-1-8.8-2.2L295.6-55.3z"/>
		<path class="st0" d="M326.5-81.7v7.1h6.4v3.4h-6.4v13.3c0,3.1,0.9,4.8,3.4,4.8c1.2,0,2-0.2,2.6-0.3l0.2,3.4
			c-0.9,0.4-2.2,0.6-4,0.6c-2.1,0-3.8-0.7-4.9-1.9c-1.3-1.3-1.7-3.5-1.7-6.4v-13.5h-3.8v-3.4h3.8v-5.9L326.5-81.7z"/>
		<path class="st0" d="M340.2-61.4c0.1,6.1,4,8.6,8.5,8.6c3.2,0,5.2-0.6,6.8-1.3l0.8,3.2c-1.6,0.7-4.3,1.5-8.2,1.5
			c-7.6,0-12.2-5-12.2-12.5s4.4-13.3,11.6-13.3c8.1,0,10.2,7.1,10.2,11.6c0,0.9-0.1,1.6-0.2,2.1H340.2z M353.4-64.6
			c0.1-2.9-1.2-7.3-6.2-7.3c-4.5,0-6.5,4.2-6.9,7.3H353.4z"/>
		<path class="st0" d="M363.7-49.9v-21.3h-3.5v-3.4h3.5v-1.2c0-3.5,0.8-6.6,2.9-8.6c1.7-1.6,3.9-2.3,6-2.3c1.6,0,3,0.4,3.8,0.7
			l-0.6,3.5c-0.7-0.3-1.6-0.6-2.9-0.6c-3.8,0-4.8,3.4-4.8,7.1v1.3h6v3.4h-6v21.3H363.7z"/>
		<path class="st0" d="M391.9-49.9l-0.4-3.1h-0.2c-1.4,1.9-4,3.7-7.6,3.7c-5,0-7.6-3.5-7.6-7.1c0-6,5.3-9.2,14.9-9.2v-0.5
			c0-2-0.6-5.7-5.6-5.7c-2.3,0-4.7,0.7-6.4,1.8l-1-3c2-1.3,5-2.2,8.1-2.2c7.6,0,9.4,5.2,9.4,10.1v9.2c0,2.1,0.1,4.2,0.4,5.9H391.9z
			 M391.2-62.5c-4.9-0.1-10.5,0.8-10.5,5.6c0,2.9,1.9,4.3,4.2,4.3c3.2,0,5.3-2,6-4.1c0.2-0.5,0.3-1,0.3-1.4V-62.5z"/>
		<path class="st0" d="M402.8-67.9c0-2.6-0.1-4.6-0.2-6.7h4l0.3,4.1h0.1c1.2-2.3,4.1-4.6,8.2-4.6c3.4,0,8.7,2,8.7,10.5v14.8h-4.5
			v-14.2c0-4-1.5-7.3-5.7-7.3c-3,0-5.3,2.1-6,4.6c-0.2,0.6-0.3,1.3-0.3,2.1v14.9h-4.5V-67.9z M420.2-85.3L414-78h-3.2l4.5-7.3H420.2
			z"/>
		<path class="st0" d="M430.5-54.5c1.3,0.9,3.7,1.8,5.9,1.8c3.3,0,4.8-1.6,4.8-3.7c0-2.1-1.3-3.3-4.6-4.5c-4.4-1.6-6.5-4-6.5-7
			c0-4,3.2-7.3,8.5-7.3c2.5,0,4.7,0.7,6.1,1.5l-1.1,3.3c-1-0.6-2.8-1.4-5.1-1.4c-2.7,0-4.1,1.5-4.1,3.4c0,2,1.5,3,4.7,4.2
			c4.3,1.6,6.5,3.8,6.5,7.5c0,4.3-3.4,7.4-9.2,7.4c-2.7,0-5.2-0.7-6.9-1.7L430.5-54.5z"/>
		<path class="st0" d="M455.8-63.2h0.1c0.6-0.9,1.5-1.9,2.2-2.8l7.3-8.5h5.4l-9.6,10.2l10.9,14.6h-5.5l-8.5-11.8l-2.3,2.6v9.3h-4.4
			v-36.3h4.4V-63.2z"/>
		<path class="st0" d="M481.2-81.5c0.1,1.5-1.1,2.8-2.9,2.8c-1.6,0-2.7-1.2-2.7-2.8c0-1.6,1.2-2.8,2.8-2.8
			C480.1-84.3,481.2-83.1,481.2-81.5z M476.2-49.9v-24.7h4.5v24.7H476.2z"/>
	</g>
	<path class="st21" d="M98.3,9.9H33.1L10.5,33.3l54.8,60.9l55.7-60.9L98.3,9.9z M94.5,57.8l-1,1.1l-3.6,4l-1,1.1l-3.6,4l-1,1.1
		l-3.6,4l-1,1.1h0.1l-4.7,5.1l-4.7,5.1l-4.7,5.1l-4.7-5.1l-4.7-5.1l-4.7-5.1h0.1l-1-1.1l-3.6-4L46,68l-3.6-4l-1-1.1l-3.6-4l-1-1.1
		l-3.6-4l-1-1.1l-3.6-4l-1-1.1L26,46.1h20.5l1.3,1.4l1,1.1l3.6,4l1,1.1l2,2.2h17.1L71,57.9l-0.5,0.5l-1.7,1.9l-0.5,0.5L67.2,62
		l-0.6,0.7l-0.5,0.5l-1.7,1.9l-0.3,0.4l1.5,1.6l2.7-3l1-1.1l3.6-4l1-1.1l1.3-1.4h20.5L94.5,57.8z M108.5,42.4l-1,1.1l-3.6,4l-1,1.1
		l-3.6,4l-1,1.1H56.7l-7.4-7.7h33.1h2.2l2.3-2.6H23.7l-1-1.1L18,37.3l-3.7-4l20.5-20.5h61.6l17.7,18l-76.9,0.2l-2.4,2.4h82l-3.6,4
		L108.5,42.4z"/>
	<g>
		<path class="st21" d="M142.4,70.1V56.3l-4.3,3.2V56l4.3-3.1V35.7h4.4v14.1l6.8-5v3.5l-6.8,4.9v13.1h14.7v3.7H142.4z"/>
		<path class="st21" d="M186.2,63.4c0,2.6,0.1,4.8,0.2,6.7h-4l-0.3-4h-0.1c-1.2,2-3.8,4.6-8.2,4.6c-3.9,0-8.5-2.1-8.5-10.8V45.4h4.5
			v13.7c0,4.7,1.4,7.9,5.5,7.9c3,0,5.1-2.1,5.9-4.1c0.3-0.7,0.4-1.5,0.4-2.3V45.4h4.5V63.4z"/>
		<path class="st21" d="M198.1,56.8h0.1c0.6-0.9,1.5-1.9,2.2-2.8l7.3-8.5h5.4l-9.6,10.2l10.9,14.6h-5.5l-8.5-11.8l-2.3,2.6v9.3h-4.4
			V33.9h4.4V56.8z"/>
		<path class="st21" d="M232.2,70.1l-0.4-3.1h-0.2c-1.4,1.9-4,3.7-7.6,3.7c-5,0-7.6-3.5-7.6-7.1c0-6,5.3-9.2,14.9-9.2v-0.5
			c0-2-0.6-5.7-5.6-5.7c-2.3,0-4.7,0.7-6.4,1.8l-1-3c2-1.3,5-2.2,8.1-2.2c7.6,0,9.4,5.2,9.4,10.1v9.2c0,2.1,0.1,4.2,0.4,5.9H232.2z
			 M231.6,57.5c-4.9-0.1-10.5,0.8-10.5,5.6c0,2.9,1.9,4.3,4.2,4.3c3.2,0,5.3-2,6-4.1c0.2-0.5,0.3-1,0.3-1.4V57.5z"/>
		<path class="st21" d="M242.5,65.5c1.3,0.9,3.7,1.8,5.9,1.8c3.3,0,4.8-1.6,4.8-3.7c0-2.1-1.3-3.3-4.6-4.5c-4.4-1.6-6.5-4-6.5-7
			c0-4,3.2-7.3,8.5-7.3c2.5,0,4.7,0.7,6.1,1.5l-1.1,3.3c-1-0.6-2.8-1.4-5.1-1.4c-2.7,0-4.1,1.5-4.1,3.4c0,2,1.5,3,4.7,4.2
			c4.3,1.6,6.5,3.8,6.5,7.5c0,4.3-3.4,7.4-9.2,7.4c-2.7,0-5.2-0.7-6.9-1.7L242.5,65.5z"/>
		<path class="st21" d="M260.6,67.5L271.8,53c1.1-1.3,2.1-2.5,3.2-3.8V49h-13.4v-3.6h18.8l-0.1,2.8l-11,14.4c-1,1.4-2,2.6-3.2,3.9
			v0.1h14.5v3.6h-20.1V67.5z"/>
		<path class="st21" d="M295.6,64.7c2,1.2,4.9,2.2,8,2.2c4.5,0,7.2-2.4,7.2-5.9c0-3.2-1.8-5.1-6.5-6.8c-5.6-2-9.1-4.9-9.1-9.8
			c0-5.4,4.4-9.3,11.1-9.3c3.5,0,6.1,0.8,7.6,1.7l-1.2,3.6c-1.1-0.6-3.4-1.6-6.5-1.6c-4.7,0-6.5,2.8-6.5,5.2c0,3.2,2.1,4.8,6.8,6.6
			c5.8,2.2,8.8,5.1,8.8,10.1c0,5.3-3.9,9.9-12.1,9.9c-3.3,0-6.9-1-8.8-2.2L295.6,64.7z"/>
		<path class="st21" d="M326.5,38.3v7.1h6.4v3.4h-6.4v13.3c0,3.1,0.9,4.8,3.4,4.8c1.2,0,2-0.2,2.6-0.3l0.2,3.4
			c-0.9,0.4-2.2,0.6-4,0.6c-2.1,0-3.8-0.7-4.9-1.9c-1.3-1.3-1.7-3.5-1.7-6.4V48.8h-3.8v-3.4h3.8v-5.9L326.5,38.3z"/>
		<path class="st21" d="M340.2,58.6c0.1,6.1,4,8.6,8.5,8.6c3.2,0,5.2-0.6,6.8-1.3l0.8,3.2c-1.6,0.7-4.3,1.5-8.2,1.5
			c-7.6,0-12.2-5-12.2-12.5s4.4-13.3,11.6-13.3c8.1,0,10.2,7.1,10.2,11.6c0,0.9-0.1,1.6-0.2,2.1H340.2z M353.4,55.4
			c0.1-2.9-1.2-7.3-6.2-7.3c-4.5,0-6.5,4.2-6.9,7.3H353.4z"/>
		<path class="st21" d="M363.7,70.1V48.8h-3.5v-3.4h3.5v-1.2c0-3.5,0.8-6.6,2.9-8.6c1.7-1.6,3.9-2.3,6-2.3c1.6,0,3,0.4,3.8,0.7
			l-0.6,3.5c-0.7-0.3-1.6-0.6-2.9-0.6c-3.8,0-4.8,3.4-4.8,7.1v1.3h6v3.4h-6v21.3H363.7z"/>
		<path class="st21" d="M391.9,70.1l-0.4-3.1h-0.2c-1.4,1.9-4,3.7-7.6,3.7c-5,0-7.6-3.5-7.6-7.1c0-6,5.3-9.2,14.9-9.2v-0.5
			c0-2-0.6-5.7-5.6-5.7c-2.3,0-4.7,0.7-6.4,1.8l-1-3c2-1.3,5-2.2,8.1-2.2c7.6,0,9.4,5.2,9.4,10.1v9.2c0,2.1,0.1,4.2,0.4,5.9H391.9z
			 M391.2,57.5c-4.9-0.1-10.5,0.8-10.5,5.6c0,2.9,1.9,4.3,4.2,4.3c3.2,0,5.3-2,6-4.1c0.2-0.5,0.3-1,0.3-1.4V57.5z"/>
		<path class="st21" d="M402.8,52.1c0-2.6-0.1-4.6-0.2-6.7h4l0.3,4.1h0.1c1.2-2.3,4.1-4.6,8.2-4.6c3.4,0,8.7,2,8.7,10.5v14.8h-4.5
			V55.9c0-4-1.5-7.3-5.7-7.3c-3,0-5.3,2.1-6,4.6c-0.2,0.6-0.3,1.3-0.3,2.1v14.9h-4.5V52.1z M420.2,34.7L414,42h-3.2l4.5-7.3H420.2z"
			/>
		<path class="st21" d="M430.5,65.5c1.3,0.9,3.7,1.8,5.9,1.8c3.3,0,4.8-1.6,4.8-3.7c0-2.1-1.3-3.3-4.6-4.5c-4.4-1.6-6.5-4-6.5-7
			c0-4,3.2-7.3,8.5-7.3c2.5,0,4.7,0.7,6.1,1.5l-1.1,3.3c-1-0.6-2.8-1.4-5.1-1.4c-2.7,0-4.1,1.5-4.1,3.4c0,2,1.5,3,4.7,4.2
			c4.3,1.6,6.5,3.8,6.5,7.5c0,4.3-3.4,7.4-9.2,7.4c-2.7,0-5.2-0.7-6.9-1.7L430.5,65.5z"/>
		<path class="st21" d="M455.8,56.8h0.1c0.6-0.9,1.5-1.9,2.2-2.8l7.3-8.5h5.4l-9.6,10.2l10.9,14.6h-5.5l-8.5-11.8l-2.3,2.6v9.3h-4.4
			V33.9h4.4V56.8z"/>
		<path class="st21" d="M481.2,38.5c0.1,1.5-1.1,2.8-2.9,2.8c-1.6,0-2.7-1.2-2.7-2.8c0-1.6,1.2-2.8,2.8-2.8
			C480.1,35.7,481.2,36.9,481.2,38.5z M476.2,70.1V45.4h4.5v24.7H476.2z"/>
	</g>
</g>
</svg>
