<?xml version="1.0" encoding="utf-8"?>
<!-- Generator: Adobe Illustrator 24.0.0, SVG Export Plug-In . SVG Version: 6.00 Build 0)  -->
<svg version="1.1" id="Layer_1" xmlns="http://www.w3.org/2000/svg" xmlns:xlink="http://www.w3.org/1999/xlink" x="0px" y="0px"
	 viewBox="0 0 500 380" style="enable-background:new 0 0 500 380;" xml:space="preserve">
<style type="text/css">
	.st0{fill:#231F20;}
</style>
<g>
	<path d="M90.9,506.6v1.7C90.9,507.7,90.9,507.1,90.9,506.6L90.9,506.6z M207.5,506.6c0,0.6,0,1.2,0,1.7L207.5,506.6L207.5,506.6z"
		/>
</g>
<g>
	<path d="M207.5,511.4L207.5,511.4l0-1.7C207.5,510.2,207.5,510.8,207.5,511.4z M90.9,509.7v1.7h0C90.9,510.8,90.9,510.2,90.9,509.7
		z"/>
</g>
<path class="st0" d="M391.2,7.9H108.2l-98,102.6l237.6,267l241.6-267L391.2,7.9z M374.6,218l-4.5,5l-15.7,17.5l-4.5,5l-15.7,17.5
	l-4.5,5l-15.7,17.5l-4.5,5h0.5l-20.2,22.5l-20.2,22.5l-20.2,22.5l-20.2-22.5l-20.2-22.5l-20.2-22.5h0.5l-4.5-5l-15.7-17.5l-4.5-5
	l-15.7-17.5l-4.5-5L128.1,223l-4.5-5l-15.7-17.5l-4.5-5L87.7,178l-4.5-5l-5.6-6.3h89.1l5.6,6.3l4.5,5l15.7,17.5l4.5,5l8.8,9.7h74.2
	l-7.3,8.2l-2.1,2.3l-7.3,8.2l-2.1,2.3l-4.7,5.2l-2.6,2.9l-2.1,2.3l-7.3,8.2l-1.4,1.6l6.3,7.1l11.7-13l4.5-5l15.7-17.5l4.5-5l5.6-6.3
	h89.1L374.6,218z M435.3,150.5l-4.5,5L415.1,173l-4.5,5l-15.7,17.5l-4.5,5H210.8l-32.2-33.8H322h9.7l10.1-11.3H67.4l-4.5-5L42.7,128
	l-16-17.7l88.8-89.8h267.2l76.8,79l-333.7,0.7l-10.3,10.4h355.8L455.6,128L435.3,150.5z"/>
</svg>
