<?xml version="1.0" encoding="utf-8"?>
<!-- Generator: Adobe Illustrator 24.0.0, SVG Export Plug-In . SVG Version: 6.00 Build 0)  -->
<svg version="1.1" id="Layer_1" xmlns="http://www.w3.org/2000/svg" xmlns:xlink="http://www.w3.org/1999/xlink" x="0px" y="0px"
	 viewBox="0 0 500 380" style="enable-background:new 0 0 500 380;" xml:space="preserve">
<style type="text/css">
	.st0{fill:#231F20;}
</style>
<g>
	<path d="M90.9,506.6v1.7C90.9,507.7,90.9,507.1,90.9,506.6L90.9,506.6z M207.5,506.6c0,0.6,0,1.2,0,1.7L207.5,506.6L207.5,506.6z"
		/>
</g>
<g>
	<path d="M207.5,511.4L207.5,511.4l0-1.7C207.5,510.2,207.5,510.8,207.5,511.4z M90.9,509.7v1.7h0C90.9,510.8,90.9,510.2,90.9,509.7
		z"/>
</g>
<g>
	<path d="M316.9,379.4v2.2C316.9,380.9,316.9,380.2,316.9,379.4L316.9,379.4z M462.7,379.4c0.1,0.7,0.1,1.4,0.1,2.2L462.7,379.4
		L462.7,379.4z"/>
</g>
<g>
	<path d="M462.8,385.5L462.8,385.5l0.1-2.2C462.8,384,462.8,384.7,462.8,385.5z M316.9,383.3v2.2h0.1
		C316.9,384.7,316.9,384,316.9,383.3z"/>
</g>
<polygon class="st0" points="474.5,108.1 458.6,125.6 438.2,148.1 433.6,153.1 417.7,170.6 413.1,175.6 397.2,193.2 392.6,198.2 
	210.9,198.2 178.3,164.4 323.5,164.4 333.3,164.4 343.5,153.1 65.9,153.1 61.3,148.1 40.9,125.6 24.7,107.8 114.6,18 384.9,18 
	462.6,97 125,97.7 114.6,108.1 "/>
<polygon class="st0" points="382.4,209.4 376.7,215.7 372.2,220.7 356.2,238.2 351.7,243.2 335.8,260.7 331.2,265.8 315.3,283.3 
	310.7,288.3 311.2,288.3 290.7,310.8 270.2,333.3 249.7,355.9 229.3,333.3 208.8,310.8 188.3,288.3 188.8,288.3 184.2,283.3 
	168.3,265.8 163.7,260.7 147.8,243.2 143.3,238.2 127.3,220.7 122.8,215.7 106.9,198.2 102.3,193.2 86.4,175.6 81.8,170.6 
	76.1,164.4 166.2,164.4 171.9,170.6 176.5,175.6 192.4,193.2 197,198.2 205.8,207.9 280.8,207.9 273.4,216.1 271.3,218.4 
	263.9,226.6 261.7,228.9 257,234.2 254.3,237.1 252.2,239.4 244.8,247.6 243.3,249.2 249.7,256.2 261.6,243.2 266.1,238.2 
	282,220.7 286.6,215.7 292.3,209.4 "/>
</svg>
